<svg width="33" height="36" viewBox="0 0 33 36" fill="none" xmlns="http://www.w3.org/2000/svg">
<path d="M15.6845 7.8V12.9C15.6845 13.8389 16.415 14.6 17.316 14.6H22.2107M25.4738 1H14.0526C12.2504 1 10.7895 2.52222 10.7894 4.39998V7.8M25.4738 1H26.384C26.8434 1 27.2808 1.20164 27.5973 1.54864C28.073 2.07012 28.8265 2.87303 29.5527 3.55C30.1218 4.08057 31.0159 5.03275 31.5513 5.61144C31.8409 5.92438 32 6.34224 32 6.77693L32 7.8M25.4738 1V6.1C25.4738 7.03889 26.2043 7.8 27.1054 7.8H32M32 7.8L31.9996 24.8001C31.9995 26.6778 30.5386 28.2 28.7364 28.2H22.2102M19.7634 10.35C19.0372 9.67304 18.2837 8.87012 17.808 8.34865C17.4915 8.00164 17.0541 7.8 16.5947 7.8H4.26323C2.46108 7.8 1.00014 9.32222 1.00013 11.2L1 31.5999C0.999988 33.4777 2.46093 34.9999 4.26309 34.9999L18.9471 35C20.7493 35 22.2102 33.4778 22.2102 31.6001L22.2107 13.5769C22.2107 13.1422 22.0515 12.7244 21.762 12.4114C21.2266 11.8328 20.3325 10.8806 19.7634 10.35Z" stroke="black" stroke-width="2" stroke-linecap="round" stroke-linejoin="round"/>
</svg>
