<svg width="36" height="43" viewBox="0 0 36 43" fill="none" xmlns="http://www.w3.org/2000/svg">
<path d="M14.0294 29.025V32.7875C14.0294 33.7854 14.3641 34.7424 14.9598 35.448C15.5555 36.1536 16.3634 36.55 17.2059 36.55L28.3235 36.55C29.166 36.55 29.9739 36.1536 30.5696 35.448C31.1653 34.7424 31.5 33.7854 31.5 32.7875L31.5 10.2125C31.5 9.21464 31.1653 8.25763 30.5696 7.55203C29.9739 6.84642 29.166 6.45001 28.3235 6.45001L17.2059 6.45001C16.3634 6.45001 15.5555 6.84642 14.9598 7.55202C14.3641 8.25763 14.0294 9.21463 14.0294 10.2125V13.975M23.5588 21.5L4.5 21.5M4.5 21.5L9.26471 27.1438M4.5 21.5L9.26471 15.8563" stroke="black" stroke-width="2" stroke-linecap="round" stroke-linejoin="round"/>
</svg>
